<svg data-v-423bf9ae="" xmlns="http://www.w3.org/2000/svg" viewBox="0 0 128.57142857142858 60" class="font"><!----><!----><!----><g data-v-423bf9ae="" id="0fd8183d-948e-419b-8046-78e0c935006e" fill="#00feff" transform="matrix(4.8979591836734695,0,0,4.8979591836734695,-0.000001089913510554652,0)"><path d="M12.25 12.25L3.50 12.25L3.50 10.50L1.75 10.50L1.75 8.75L0 8.75L0 3.50L1.75 3.50L1.75 1.75L3.50 1.75L3.50 0L12.25 0L12.25 1.75L5.25 1.75L5.25 3.50L3.50 3.50L3.50 8.75L5.25 8.75L5.25 10.50L8.75 10.50L8.75 7L7 7L7 5.25L12.25 5.25L12.25 12.25ZM17.50 12.25L14 12.25L14 3.50L15.75 3.50L15.75 1.75L17.50 1.75L17.50 0L22.75 0L22.75 1.75L24.50 1.75L24.50 3.50L26.25 3.50L26.25 12.25L22.75 12.25L22.75 8.75L17.50 8.75L17.50 12.25ZM17.50 3.50L17.50 7L22.75 7L22.75 3.50L21 3.50L21 1.75L19.25 1.75L19.25 3.50L17.50 3.50Z"></path></g><!----><!----></svg>