<?xml version="1.0" standalone="no"?>
<!DOCTYPE svg PUBLIC "-//W3C//DTD SVG 20010904//EN"
 "http://www.w3.org/TR/2001/REC-SVG-20010904/DTD/svg10.dtd">
<svg version="1.0" xmlns="http://www.w3.org/2000/svg"
 width="1200.000000pt" height="360.000000pt" viewBox="0 0 1200.000000 360.000000"
 preserveAspectRatio="xMidYMid meet">

<g transform="translate(0.000000,360.000000) scale(0.100000,-0.100000)"
fill="#000000" stroke="none">
<path d="M9610 2010 l0 -740 155 0 155 0 0 740 0 740 -155 0 -155 0 0 -740z"/>
<path d="M10255 2728 c-112 -39 -159 -163 -101 -262 85 -145 316 -99 341 68
19 126 -118 237 -240 194z"/>
<path d="M5007 2300 c-55 -14 -97 -38 -139 -78 l-38 -36 0 47 0 47 -155 0
-155 0 0 -505 0 -505 154 0 155 0 3 323 c3 350 4 352 62 406 20 19 40 26 88
29 78 6 120 -14 148 -73 19 -39 20 -61 20 -363 l0 -322 155 0 155 0 0 313 c0
347 3 364 69 420 28 23 42 27 96 27 54 0 68 -4 96 -27 57 -49 59 -61 59 -413
l0 -320 155 0 155 0 0 338 c0 368 -6 420 -57 515 -36 65 -111 131 -181 158
-46 19 -77 23 -162 23 -126 0 -196 -23 -259 -85 l-41 -39 -31 34 c-50 58 -125
88 -227 92 -48 2 -104 -1 -125 -6z"/>
<path d="M6632 2290 c-92 -24 -156 -59 -225 -121 -110 -97 -164 -212 -174
-364 -15 -238 117 -437 349 -529 50 -19 93 -28 170 -32 189 -12 318 41 447
182 92 100 131 206 131 354 0 153 -51 270 -161 375 -110 103 -208 144 -364
151 -79 3 -116 0 -173 -16z m273 -304 c80 -48 117 -113 117 -213 1 -113 -62
-198 -171 -229 -207 -61 -382 150 -286 343 61 122 221 168 340 99z"/>
<path d="M7993 2293 c-66 -23 -138 -94 -178 -176 l-35 -72 0 123 0 122 -155 0
-155 0 0 -510 0 -510 165 0 165 0 0 233 c0 306 21 405 98 462 33 24 150 33
219 16 25 -7 47 -10 50 -8 10 10 84 290 80 301 -13 34 -176 47 -254 19z"/>
<path d="M8621 2295 c-315 -89 -466 -479 -305 -785 93 -177 284 -284 476 -266
95 9 175 41 226 91 l42 42 0 -53 0 -54 155 0 155 0 0 505 0 505 -155 0 -155 0
0 -62 0 -63 -19 30 c-28 47 -76 83 -134 100 -76 24 -220 28 -286 10z m310
-295 c49 -25 105 -91 118 -137 6 -21 11 -60 11 -88 0 -73 -17 -121 -58 -167
-50 -56 -110 -81 -192 -81 -82 0 -142 25 -192 81 -79 88 -80 246 -1 333 61 68
126 92 223 82 30 -3 71 -13 91 -23z"/>
<path d="M10950 2294 c-132 -35 -227 -112 -254 -205 -37 -123 -10 -237 73
-312 51 -46 101 -68 241 -109 136 -39 180 -62 180 -91 0 -46 -36 -67 -111 -67
-71 0 -133 31 -161 79 l-22 38 -125 -70 c-69 -38 -129 -72 -133 -76 -9 -8 32
-72 76 -119 115 -124 409 -160 601 -73 122 56 180 132 192 254 8 87 -15 160
-68 221 -52 59 -105 86 -259 131 -180 53 -207 72 -176 120 33 50 128 41 188
-16 l40 -38 129 68 129 68 -29 40 c-100 138 -324 207 -511 157z"/>
<path d="M10160 1775 l0 -505 155 0 155 0 0 505 0 505 -155 0 -155 0 0 -505z"/>
</g>
</svg>
