<svg version="1.0" xmlns="http://www.w3.org/2000/svg"
 width="1280.000000pt" height="260.000000pt" viewBox="0 0 1280.000000 260.000000"
 preserveAspectRatio="xMidYMid meet">

<g transform="translate(0.000000,260.000000) scale(0.100000,-0.100000)"
fill="#000000" stroke="none">
<path d="M0 1310 l0 -1290 220 0 220 0 0 1011 c0 555 4 1008 9 1005 4 -3 372
-458 817 -1011 l808 -1005 1383 0 1383 0 0 205 0 205 -890 0 -890 0 0 340 0
340 715 0 715 0 0 210 0 210 -715 0 -715 0 0 330 0 330 890 0 890 0 0 205 0
205 -1115 0 -1115 0 -2 -1275 -3 -1274 -1025 1274 -1025 1274 -277 1 -278 0 0
-1290z"/>
<path d="M5387 2588 c53 -69 2031 -2529 2047 -2546 22 -22 22 -22 307 -20
l286 3 -514 638 c-282 350 -513 641 -513 645 0 4 229 294 510 642 280 349 510
638 510 643 0 4 -127 7 -283 7 l-283 0 -360 -447 c-197 -245 -366 -455 -374
-466 -15 -18 -36 6 -390 447 l-375 466 -289 0 c-229 0 -286 -3 -279 -12z"/>
<path d="M8510 2395 l0 -205 450 0 450 0 0 -1085 0 -1085 220 0 220 0 2 1083
3 1082 443 3 442 2 0 205 0 205 -1115 0 -1115 0 0 -205z"/>
<path d="M12293 1129 c-210 -35 -340 -207 -289 -383 33 -113 120 -171 346
-231 146 -39 198 -62 229 -101 45 -57 16 -145 -61 -186 -36 -19 -58 -23 -133
-23 -127 0 -188 34 -218 121 l-14 39 -94 0 -94 0 3 -40 c5 -56 43 -135 86
-178 139 -139 467 -154 631 -29 95 73 135 197 102 313 -34 116 -132 183 -352
240 -66 17 -141 42 -166 55 -55 27 -84 78 -75 128 7 39 58 89 105 105 43 14
146 13 189 -2 44 -16 92 -64 99 -98 l6 -29 93 0 94 0 0 33 c0 17 -11 55 -24
82 -66 143 -257 218 -463 184z"/>
<path d="M11590 713 c0 -448 0 -451 -62 -496 -35 -26 -123 -27 -165 -2 -34 20
-63 63 -63 94 0 20 -5 21 -100 21 -115 0 -114 1 -85 -96 30 -103 126 -175 257
-193 177 -25 326 47 391 187 21 45 22 61 25 470 l3 422 -100 0 -101 0 0 -407z"/>
<path d="M5830 583 c-234 -290 -431 -535 -438 -545 -13 -17 -1 -18 276 -18
l289 0 279 347 c153 191 287 356 296 368 16 21 13 26 -123 196 -76 96 -142
175 -147 177 -4 1 -199 -235 -432 -525z"/>
<path d="M10795 256 c-41 -18 -65 -47 -71 -88 -12 -69 44 -128 122 -128 54 0
104 53 104 109 0 51 -24 89 -67 107 -39 17 -50 17 -88 0z"/>
</g>
</svg>
